# xmcd
#
# Track frame offsets:
#	150
#	10750
#	26845
#	41115
#	50857
#	69920
#	81077
#	91320
#	109997
#	123015
#	132115
#	149452
#
# Disc length: 2158 seconds
#
# Revision: 1
# Processed by: cddbd v1.5.2PL0 Copyright (c) Steve Scherf et al.
# Submitted via: audiograbber 1.83.01
#
DISCID=a2086c0c
DTITLE=OXN-AUG'N TRIO - OXN-AUG'N
DYEAR=1997
DGENRE=Volksmusik
TTITLE0=Brathendl Polka
TTITLE1=Am Mitterkaser drob'n
TTITLE2=Wenn die Erde bebt
TTITLE3=OXN-AUG'N Boarischer
TTITLE4=Mia san de OXN-AUG'N
TTITLE5=Noglstoana Polka
TTITLE6=Bercht'sgadner Bier
TTITLE7=D'Fastenzeit
TTITLE8=A wunderschens Liad
TTITLE9=Da stoanane Rastbank-Bmbara
TTITLE10=Mei Hasi
TTITLE11=A Häusl weiter
EXTD=
EXTT0=
EXTT1=
EXTT2=
EXTT3=
EXTT4=
EXTT5=
EXTT6=
EXTT7=
EXTT8=
EXTT9=
EXTT10=
EXTT11=
PLAYORDER=
